<?xml version="1.0" encoding="UTF-8" standalone="no"?>
<!-- Created with Inkscape (http://www.inkscape.org/) -->

<svg
   width="120"
   height="120"
   viewBox="0 0 120 120"
   version="1.1"
   id="svg5"
   inkscape:version="1.1.1 (3bf5ae0d25, 2021-09-20)"
   sodipodi:docname="icon.svg"
   xmlns:inkscape="http://www.inkscape.org/namespaces/inkscape"
   xmlns:sodipodi="http://sodipodi.sourceforge.net/DTD/sodipodi-0.dtd"
   xmlns="http://www.w3.org/2000/svg"
   xmlns:svg="http://www.w3.org/2000/svg">
  <sodipodi:namedview
     id="namedview7"
     pagecolor="#ffffff"
     bordercolor="#999999"
     borderopacity="1"
     inkscape:pageshadow="0"
     inkscape:pageopacity="0"
     inkscape:pagecheckerboard="0"
     inkscape:document-units="px"
     showgrid="false"
     inkscape:snap-bbox="true"
     inkscape:bbox-paths="false"
     inkscape:bbox-nodes="false"
     inkscape:snap-bbox-edge-midpoints="false"
     inkscape:snap-bbox-midpoints="false"
     inkscape:zoom="3.4666667"
     inkscape:cx="32.01923"
     inkscape:cy="66.201922"
     inkscape:window-width="1920"
     inkscape:window-height="1017"
     inkscape:window-x="-8"
     inkscape:window-y="32"
     inkscape:window-maximized="1"
     inkscape:current-layer="layer1"
     inkscape:snap-nodes="true" />
  <defs
     id="defs2">
    <linearGradient
       id="IconifyId1813032568c596772606"
       x1="26.194781"
       x2="164.96743"
       y1="54.600455"
       y2="86.922005"
       gradientTransform="scale(1.4444596,0.69230041)"
       gradientUnits="userSpaceOnUse">
      <stop
         offset="10%"
         stop-color="#76B3E1"
         id="stop14" />
      <stop
         offset="30%"
         stop-color="#DCF2FD"
         id="stop16" />
      <stop
         offset="100%"
         stop-color="#76B3E1"
         id="stop18" />
    </linearGradient>
    <linearGradient
       id="IconifyId1813032568c596772607"
       x1="101.5154"
       x2="77.407713"
       y1="118.95916"
       y2="156.83183"
       gradientTransform="scale(1.4559733,0.68682578)"
       gradientUnits="userSpaceOnUse">
      <stop
         offset="0%"
         stop-color="#76B3E1"
         id="stop21" />
      <stop
         offset="50%"
         stop-color="#4377BB"
         id="stop23" />
      <stop
         offset="100%"
         stop-color="#1F3B77"
         id="stop25" />
    </linearGradient>
    <linearGradient
       id="IconifyId1813032568c596772608"
       x1="17.416795"
       x2="169.69056"
       y1="183.6178"
       y2="242.04026"
       gradientTransform="scale(1.3311964,0.75120398)"
       gradientUnits="userSpaceOnUse">
      <stop
         offset="0%"
         stop-color="#315AA9"
         id="stop28" />
      <stop
         offset="50%"
         stop-color="#518AC8"
         id="stop30" />
      <stop
         offset="100%"
         stop-color="#315AA9"
         id="stop32" />
    </linearGradient>
    <linearGradient
       id="IconifyId1813032568c596772609"
       x1="78.230817"
       x2="22.414396"
       y1="260.20718"
       y2="355.5321"
       gradientTransform="scale(1.4653718,0.68242069)"
       gradientUnits="userSpaceOnUse">
      <stop
         offset="0%"
         stop-color="#4377BB"
         id="stop35" />
      <stop
         offset="50%"
         stop-color="#1A336B"
         id="stop37" />
      <stop
         offset="100%"
         stop-color="#1A336B"
         id="stop39" />
    </linearGradient>
  </defs>
  <g
     inkscape:label="Layer 1"
     inkscape:groupmode="layer"
     id="layer1">
    <g
       id="g27"
       transform="matrix(3.9701276,0,0,3.9701276,-9.0397735,-3.4505229)">
      <path
         fill="#ffc131"
         d="M 20.923,12.167 A 2.677,2.677 0 1 1 18.236,9.5 h 0.02 a 2.667,2.667 0 0 1 2.667,2.667 z"
         id="path9" />
      <circle
         cx="13.763"
         cy="19.818001"
         r="2.6670001"
         fill="#24c8db"
         id="circle11" />
      <path
         fill="#ffc131"
         d="m 23.791,20.731 a 10.388,10.388 0 0 1 -3.52,1.434 7.23,7.23 0 0 0 0.351,-3.229 A 7.17,7.17 0 1 0 12.44,7.966 12.033,12.033 0 0 0 8.529,9.109 10.2,10.2 0 1 1 23.791,20.731 Z m -15.142,-9.757 2.5,0.3 A 7.7,7.7 0 0 1 11.47,9.85 10.228,10.228 0 0 0 8.649,10.974 Z"
         id="path13" />
      <path
         fill="#24c8db"
         d="m 8.208,11.255 a 10.168,10.168 0 0 1 3.55,-1.444 7.129,7.129 0 0 0 -0.4,3.239 7.17,7.17 0 1 0 8.222,10.96 12.153,12.153 0 0 0 3.911,-1.123 A 10.208,10.208 0 1 1 8.208,11.255 Z M 23.349,21 Z"
         id="path15" />
    </g>
    <g
       id="g82"
       transform="matrix(0.26951531,0,0,0.26951531,49.821351,44.269171)">
      <path
         fill="#76b3e1"
         d="m 256,50.473 c 0,0 -85.333,-62.793 -151.346,-48.303 l -4.83,1.61 C 90.164,7 82.114,11.83 77.283,18.27 l -3.22,4.83 -24.151,41.862 41.862,8.05 c 17.71,11.271 40.251,16.101 61.182,11.271 L 227.019,98.773 256,50.474 Z"
         id="path44" />
      <path
         fill="url(#IconifyId1813032568c596772606)"
         d="m 256,50.473 c 0,0 -85.333,-62.793 -151.346,-48.303 l -4.83,1.61 C 90.164,7 82.114,11.83 77.283,18.27 l -3.22,4.83 -24.151,41.862 41.862,8.05 c 17.71,11.271 40.251,16.101 61.182,11.271 L 227.019,98.773 256,50.474 Z"
         opacity="0.3"
         id="path46"
         style="fill:url(#IconifyId1813032568c596772606)" />
      <path
         fill="#518ac8"
         d="m 77.283,50.473 -6.44,1.61 c -27.371,8.05 -35.422,33.811 -20.931,56.352 16.1,20.931 49.912,32.201 77.283,24.151 l 99.824,-33.811 c 0,0 -85.333,-62.793 -149.736,-48.302 z"
         id="path48" />
      <path
         fill="url(#IconifyId1813032568c596772607)"
         d="m 77.283,50.473 -6.44,1.61 c -27.371,8.05 -35.422,33.811 -20.931,56.352 16.1,20.931 49.912,32.201 77.283,24.151 l 99.824,-33.811 c 0,0 -85.333,-62.793 -149.736,-48.302 z"
         opacity="0.3"
         id="path50"
         style="fill:url(#IconifyId1813032568c596772607)" />
      <path
         fill="url(#IconifyId1813032568c596772608)"
         d="M 209.308,122.926 C 190.868,99.889 160.301,90.336 132.025,98.775 L 32.201,130.976 0,187.328 l 180.327,30.591 32.201,-57.962 c 6.44,-11.27 4.83,-24.15 -3.22,-37.031 z"
         id="path52"
         style="fill:url(#IconifyId1813032568c596772608)" />
      <path
         fill="url(#IconifyId1813032568c596772609)"
         d="m 177.107,179.278 c -18.44,-23.037 -49.008,-32.59 -77.283,-24.151 L 0,187.328 c 0,0 85.333,64.403 151.346,48.302 l 4.83,-1.61 c 27.371,-8.05 37.032,-33.811 20.93,-54.742 z"
         id="path54"
         style="fill:url(#IconifyId1813032568c596772609)" />
    </g>
  </g>
</svg>
