<?xml version="1.0" encoding="UTF-8" standalone="no"?>
<!-- Created with Inkscape (http://www.inkscape.org/) -->

<svg
   width="120"
   height="120"
   viewBox="0 0 120 120"
   version="1.1"
   id="svg5"
   inkscape:version="1.1.1 (3bf5ae0d25, 2021-09-20)"
   sodipodi:docname="icon.svg"
   xmlns:inkscape="http://www.inkscape.org/namespaces/inkscape"
   xmlns:sodipodi="http://sodipodi.sourceforge.net/DTD/sodipodi-0.dtd"
   xmlns="http://www.w3.org/2000/svg"
   xmlns:svg="http://www.w3.org/2000/svg">
  <sodipodi:namedview
     id="namedview7"
     pagecolor="#ffffff"
     bordercolor="#999999"
     borderopacity="1"
     inkscape:pageshadow="0"
     inkscape:pageopacity="0"
     inkscape:pagecheckerboard="0"
     inkscape:document-units="px"
     showgrid="false"
     inkscape:snap-bbox="true"
     inkscape:bbox-paths="true"
     inkscape:bbox-nodes="true"
     inkscape:snap-bbox-edge-midpoints="true"
     inkscape:snap-bbox-midpoints="true"
     inkscape:zoom="2.4513035"
     inkscape:cx="41.406541"
     inkscape:cy="58.540283"
     inkscape:window-width="1920"
     inkscape:window-height="1017"
     inkscape:window-x="-8"
     inkscape:window-y="32"
     inkscape:window-maximized="1"
     inkscape:current-layer="layer1" />
  <defs
     id="defs2" />
  <g
     inkscape:label="Layer 1"
     inkscape:groupmode="layer"
     id="layer1">
    <g
       id="g27"
       transform="matrix(3.9701276,0,0,3.9701276,-9.0397735,-3.4505229)">
      <path
         fill="#ffc131"
         d="M 20.923,12.167 A 2.677,2.677 0 1 1 18.236,9.5 h 0.02 a 2.667,2.667 0 0 1 2.667,2.667 z"
         id="path9" />
      <circle
         cx="13.763"
         cy="19.818001"
         r="2.6670001"
         fill="#24c8db"
         id="circle11" />
      <path
         fill="#ffc131"
         d="m 23.791,20.731 a 10.388,10.388 0 0 1 -3.52,1.434 7.23,7.23 0 0 0 0.351,-3.229 A 7.17,7.17 0 1 0 12.44,7.966 12.033,12.033 0 0 0 8.529,9.109 10.2,10.2 0 1 1 23.791,20.731 Z m -15.142,-9.757 2.5,0.3 A 7.7,7.7 0 0 1 11.47,9.85 10.228,10.228 0 0 0 8.649,10.974 Z"
         id="path13" />
      <path
         fill="#24c8db"
         d="m 8.208,11.255 a 10.168,10.168 0 0 1 3.55,-1.444 7.129,7.129 0 0 0 -0.4,3.239 7.17,7.17 0 1 0 8.222,10.96 12.153,12.153 0 0 0 3.911,-1.123 A 10.208,10.208 0 1 1 8.208,11.255 Z M 23.349,21 Z"
         id="path15" />
    </g>
    <g
       id="g33"
       transform="matrix(2.2179296,0,0,2.2179296,49.926659,30.711812)">
      <circle
         cx="16"
         cy="15.974"
         r="2.5"
         fill="#00d8ff"
         id="circle15" />
      <path
         fill="#00d8ff"
         d="M 16,21.706 A 28.385,28.385 0 0 1 7.12,20.506 11.3,11.3 0 0 1 3.463,18.548 3.543,3.543 0 0 1 2,15.974 C 2,14.321 3.816,12.701 6.858,11.641 A 28.755,28.755 0 0 1 16,10.293 a 28.674,28.674 0 0 1 9.022,1.324 11.376,11.376 0 0 1 3.538,1.866 3.391,3.391 0 0 1 1.44,2.491 c 0,1.718 -2.03,3.459 -5.3,4.541 A 28.8,28.8 0 0 1 16,21.706 Z m 0,-10.217 a 27.948,27.948 0 0 0 -8.749,1.282 c -2.8,0.977 -4.055,2.313 -4.055,3.2 0,0.928 1.349,2.387 4.311,3.4 A 27.21,27.21 0 0 0 16,20.51 27.6,27.6 0 0 0 24.325,19.38 C 27.4,18.361 28.8,16.9 28.8,15.974 A 2.327,2.327 0 0 0 27.79,14.401 10.194,10.194 0 0 0 24.629,12.747 27.462,27.462 0 0 0 16,11.489 Z"
         id="path17" />
      <path
         fill="#00d8ff"
         d="M 10.32,28.443 A 2.639,2.639 0 0 1 8.984,28.115 C 7.552,27.289 7.056,24.907 7.657,21.742 a 28.755,28.755 0 0 1 3.4,-8.593 28.676,28.676 0 0 1 5.653,-7.154 11.376,11.376 0 0 1 3.384,-2.133 3.391,3.391 0 0 1 2.878,0 c 1.489,0.858 1.982,3.486 1.287,6.859 a 28.806,28.806 0 0 1 -3.316,8.133 28.385,28.385 0 0 1 -5.476,7.093 11.3,11.3 0 0 1 -3.523,2.189 4.926,4.926 0 0 1 -1.624,0.307 z m 1.773,-14.7 a 27.948,27.948 0 0 0 -3.26,8.219 c -0.553,2.915 -0.022,4.668 0.75,5.114 0.8,0.463 2.742,0.024 5.1,-2.036 a 27.209,27.209 0 0 0 5.227,-6.79 27.6,27.6 0 0 0 3.181,-7.776 C 23.745,7.299 23.18,5.355 22.378,4.893 A 2.327,2.327 0 0 0 20.51,4.982 10.194,10.194 0 0 0 17.5,6.9 27.464,27.464 0 0 0 12.1,13.749 Z"
         id="path19" />
      <path
         fill="#00d8ff"
         d="m 21.677,28.456 c -1.355,0 -3.076,-0.82 -4.868,-2.361 A 28.756,28.756 0 0 1 11.062,18.858 28.676,28.676 0 0 1 7.688,10.387 11.376,11.376 0 0 1 7.53,6.387 3.391,3.391 0 0 1 8.964,3.9 c 1.487,-0.861 4.01,0.024 6.585,2.31 a 28.8,28.8 0 0 1 5.39,6.934 28.384,28.384 0 0 1 3.41,8.287 11.3,11.3 0 0 1 0.137,4.146 3.543,3.543 0 0 1 -1.494,2.555 2.59,2.59 0 0 1 -1.315,0.324 z m -9.58,-10.2 a 27.949,27.949 0 0 0 5.492,6.929 c 2.249,1.935 4.033,2.351 4.8,1.9 0.8,-0.465 1.39,-2.363 0.782,-5.434 A 27.212,27.212 0 0 0 19.9,13.74 27.6,27.6 0 0 0 14.755,7.1 C 12.331,4.948 10.365,4.467 9.564,4.931 a 2.327,2.327 0 0 0 -0.855,1.662 10.194,10.194 0 0 0 0.153,3.565 27.465,27.465 0 0 0 3.236,8.1 z"
         id="path21" />
    </g>
  </g>
</svg>
